<?xml version="1.0" encoding="UTF-8"?>
<svg width="24" height="24" version="1.1" viewBox="0 0 6.35 6.35" xmlns="http://www.w3.org/2000/svg">
 <g>
  <g transform="matrix(1.052 0 0 1.052 -.21262 -.20369)">
   <path d="m3.1596 1.5651s0.69471-0.18454 1.0985-0.10631c0.47247 0.091541 0.90694 1.119 0.78253 1.9696-0.10604 0.72502-0.79848 1.2068-1.3495 1.2166-0.26565 0.0047306-0.60831-0.062012-0.60831-0.062012s-0.56082 0.083028-0.79434 0.067917c-0.502-0.032482-1.0081-0.85463-1.0394-1.8485-0.01718-0.54444 0.48141-1.3363 1.0306-1.379 0.48078-0.037394 0.87998 0.14174 0.87998 0.14174z" fill="#c60203" stroke="#000" stroke-width=".079375"/>
   <g>
    <path d="m2.0379 2.1549c-0.043785 0.30181 0.27562 0.31235 0.4009 0.33409 0.11853 0.020564 0.34244-0.029233 0.35079-0.20463 0.00835-0.1754-0.21716-0.22968-0.25892-0.23386-0.041761-0.00418-0.39255 0-0.49278 0.1044z" fill="#fff" stroke="#000" stroke-width=".052917"/>
    <path d="m2.656 2.1329c-0.049069-0.00209-0.095006 0.087698-0.10127 0.15034-0.00626 0.062641 0.032365 0.14199 0.079346 0.14616 0.078302 0.005224 0.1493-0.068905 0.15138-0.14303 0.00209-0.074126-0.045937-0.16391-0.12946-0.15347z"/>
    <path d="m3.5121 2.1131c-0.043848 0.18166 0.091874 0.30903 0.34244 0.32573 0.25057 0.016704 0.3226-0.088742 0.32156-0.24848-6.01e-4 -0.091967-0.10127-0.18792-0.25996-0.18584-0.13369 0.001759-0.35184-0.024013-0.40404 0.10858z" fill="#fff" stroke="#000" stroke-width=".052917"/>
    <path d="m4.0617 2.0838c-0.063773-0.00416-0.12266 0.050515-0.13331 0.16688-0.00574 0.062691 0.00854 0.15917 0.067977 0.16477 0.07813 0.00735 0.16893-0.084408 0.17102-0.15853 0.00209-0.074126-0.00243-0.16637-0.10569-0.17311z"/>
   </g>
   <path d="m2.9001 2.7823s0.14779 0.11989 0.27905 0.11369c0.13126-0.0062 0.29249-0.13746 0.29249-0.13746" fill="none" stroke="#000" stroke-linecap="round" stroke-width=".053446"/>
   <path d="m3.1295 2.651c0.037105 4.631e-4 0.090948 0.044442 0.083716 0.073381-0.00723 0.028938-0.048576 0.045473-0.076481 0.041341-0.027905-0.00413-0.062013-0.037207-0.063045-0.068213-0.00103-0.031006 0.031596-0.046811 0.05581-0.046509z"/>
   <path d="m3.1206 1.5537c-0.024847-0.18855-0.024847-0.47941-0.014616-0.49403 0.010231-0.014616 0.10378-0.027771 0.1257-0.029233 0.021923-0.00146 0.11401-0.00877 0.1257 0 0.011692 0.00877-0.017539 0.49111-0.017539 0.49111l-0.18018 0.043501z" fill="#572d0f" stroke="#000" stroke-width=".052917"/>
   <g>
    <path d="m3.3398 1.5216s0.01276-0.14961 0.020463-0.21047c0.013719-0.10841 0.26304-0.23948 0.42826-0.31717 0.17395-0.0818 0.40195-0.074543 0.40195-0.074543s0.00439 0.18563-0.035079 0.25725c-0.039464 0.07162-0.18709 0.24555-0.18709 0.24555s-0.19878 0.010231-0.29086 0.024848c-0.092083 0.014616-0.33764 0.074543-0.33764 0.074543z" fill="#008534" stroke="#000" stroke-width=".052917"/>
    <path d="m3.5615 1.386s-0.016536-0.014469-0.013435-0.033073c0.0031-0.018603 0.047542-0.13022 0.051677-0.13849 0.00414-0.00827 0.021704-0.031006 0.031006-0.027905 0.0093 0.0031 0.011369 0.024805 0.00827 0.037207-0.0031 0.012402-0.03824 0.12092-0.03824 0.12092l0.12919-0.091984s0.017571-0.07028 0.024805-0.088884c0.00723-0.018603 0.031006-0.078548 0.049609-0.07338 0.018603 0.00517-0.00103 0.07338-0.00517 0.083716-0.00414 0.010335-0.015502 0.039274-0.015502 0.039274s0.13849-0.097152 0.1602-0.10852c0.021703-0.011369 0.11472-0.054777 0.11885-0.046509 0.00414 0.00827-0.081649 0.058911-0.095085 0.069246s-0.12196 0.089917-0.12196 0.089917 0.057878 0.00207 0.068213 0.00413c0.010335 0.00207 0.033073 0.010336 0.031006 0.021704-0.00206 0.011369-0.024805 0.026872-0.050643 0.026872-0.025839 0-0.11989-0.0031-0.11989-0.0031l-0.086816 0.073381s0.057878-0.00103 0.076481 0 0.039274 0.0093 0.040307 0.018603c0.00103 0.0093-0.038241 0.031006-0.074414 0.031006s-0.098185-0.011369-0.098185-0.011369-0.040308 0.032039-0.057878 0.034106c-0.017571 0.00207-0.047542 0.00103-0.047542 0.00103z" fill="#030000"/>
   </g>
   <g stroke="#000">
    <path d="m1.3476 1.2482c0.01754 0.52034 0.1754 0.71035 0.1754 0.71035s-0.095603 0.1508-0.14616 0.25725c-0.055542 0.11693-0.13301 0.38295-0.13301 0.38295s-0.45603-0.30256-0.077467-1.4236zm-0.24555-0.31864c0.043849-0.070158 0.13447-0.038002 0.15201-0.043849 0.01754-0.005846 0.01754-0.13155 0.14616-0.13155 0.12862 0 0.1637 0.19586 0.1637 0.19586s0.17436 0.098829 0.12242 0.1981c-0.055957 0.10695-0.26346 0.1199-0.42644 0.068446-0.09533-0.030094-0.18724-0.14761-0.15786-0.28701z" fill="#fff" stroke-width=".053446"/>
    <g fill="none" stroke-linecap="round" stroke-width=".052917">
     <path d="m1.2816 1.3953s-0.19327 0.063045-0.22221 0.11059"/>
     <path d="m1.3105 1.6206s-0.21291 0.10335-0.28629 0.21291"/>
     <path d="m1.0914 2.1652c0.010335-0.10542 0.25425-0.33796 0.3452-0.38034"/>
    </g>
   </g>
   <g stroke="#000">
    <path d="m4.94 1.2979c0.15201 0.28063-0.076005 0.85359-0.076005 0.85359s0.083001 0.22541 0.11401 0.3391c0.035079 0.12862 0.074543 0.3771 0.074543 0.3771s0.76297-0.44872 0.10378-1.678zm0.29233-0.3771c-0.03331-0.10984-0.21399-0.057817-0.21399-0.057817-0.01754-0.005846-0.033145-0.098875-0.16896-0.07373-0.15193 0.028131-0.061389 0.23971-0.061389 0.23971s-0.23897 0.04692-0.11365 0.17472c0.18064 0.18422 0.48198-0.013937 0.48198-0.013937l0.035674 0.060894s0.085908-0.17954 0.040331-0.32983z" fill="#fff" stroke-width=".053446"/>
    <g fill="none" stroke-linecap="round" stroke-width=".052917">
     <path d="m5.0557 1.559s0.074878-0.034884 0.20759 0.025813"/>
     <path d="m5.0575 1.8091s0.16467 0.12966 0.24244 0.23337"/>
     <path d="m5.3181 2.5625c-0.16088-0.27643-0.25924-0.42539-0.41158-0.46923"/>
    </g>
   </g>
   <g stroke="#000" stroke-width=".052917">
    <path d="m2.3649 4.6597s0.027771 0.46918 0.065773 0.5715c0.038002 0.10231 0.077466 0.21924 0.1447 0.22363 0.067235 0.00438 0.23678-0.013155 0.23678-0.013155s-0.023386-0.30548-0.024847-0.39172c-0.00146-0.086236-0.00146-0.42533-0.00146-0.42533z" fill="#fff"/>
    <g fill="none" stroke-linecap="round">
     <path d="m2.4292 4.8205 0.23678 0.013155"/>
     <path d="m2.5038 5.0412 0.19878-0.00731"/>
     <path d="m2.7289 5.2049s-0.14324 0.017539-0.17832 0.019c-0.035079 0.00146-0.10085 0.00438-0.10085 0.00438"/>
    </g>
    <path d="m2.1853 5.431c-0.084529 0.0063-0.042845 0.1765 0.13401 0.21451 0.17686 0.038003 0.4412 0.028022 0.49763-0.00938 0.040926-0.039461 0.04624-0.11879-0.0033465-0.174-0.035122-0.024212-0.22871-0.0090209-0.25115-0.0046359-0.10934-0.017341-0.27212-0.034317-0.37715-0.026484z" fill="#bc672c"/>
    <path d="m4.142 4.5408s-0.038107 0.45471-0.14225 0.68519c-0.044945 0.09946-0.063053 0.19882-0.063053 0.19882l-0.28433 0.016817s0.023386-0.30548 0.024847-0.39172c0.00146-0.086236 0.014896-0.39743 0.014896-0.39743s0.16382-0.021952 0.24403-0.042239c0.069895-0.017677 0.20586-0.069442 0.20586-0.069442z" fill="#fff"/>
    <g fill="none" stroke-linecap="round">
     <path d="m3.9733 4.8659s-0.081658 0.015398-0.12301 0.01846c-0.041602 0.00308-0.12515-1.377e-4 -0.12515-1.377e-4"/>
     <path d="m3.9814 5.0391s-0.073502 0.01162-0.11387 0.014846c-0.036916 0.00295-0.11798 0.00368-0.11798 0.00368"/>
     <path d="m3.7233 5.208c0.078971-0.00341 0.15121-0.00959 0.22129-0.013827"/>
    </g>
    <path d="m4.151 5.4134c0.054485 4.056e-4 0.065159 0.15924-6.862e-4 0.20314-0.12918 0.086129-0.40849 0.054772-0.49453-0.017648-0.043497-0.036608-0.054508-0.08158-0.00492-0.1368 0.11428-0.052837 0.39784-0.044638 0.50014-0.04869z" fill="#bc672c"/>
   </g>
  </g>
 </g>
</svg>
